<svg aria-hidden="true" style="position:absolute;width:0;height:0;overflow:hidden" xmlns="http://www.w3.org/2000/svg"><defs><symbol id="icon-burger" viewBox="0 0 32 32"><path d="M4 24h24v-2.667H4V24zm0-6.667h24v-2.667H4v2.667zM4 8v2.667h24V8H4z"/></symbol><symbol id="icon-cross" viewBox="0 0 32 32"><path d="M32 3.223 28.777 0 16 12.777 3.223 0 0 3.223 12.777 16 0 28.777 3.223 32 16 19.223 28.777 32 32 28.777 19.223 16 32 3.223z"/></symbol><symbol id="icon-search" viewBox="0 0 32 32"><path d="M22.222 19.556h-1.404l-.498-.48a11.507 11.507 0 0 0 2.791-7.52C23.111 5.174 17.938 0 11.555 0S-.001 5.173-.001 11.556c0 6.382 5.173 11.556 11.556 11.556 2.862 0 5.493-1.049 7.52-2.791l.48.498v1.404l8.889 8.871 2.649-2.649-8.871-8.889zm-10.666 0c-4.427 0-8-3.573-8-8s3.573-8 8-8 8 3.573 8 8-3.573 8-8 8z"/></symbol><symbol id="icon-top" viewBox="0 0 32 32"><path fill="#fff" style="fill:var(--color1, #fff)" d="M16 30.815C7.822 30.815 1.185 24.178 1.185 16S7.822 1.185 16 1.185 30.815 7.822 30.815 16 24.178 30.815 16 30.815zM14.519 16v5.926h2.963V16h4.444L16 10.074 10.074 16h4.444z"/></symbol></defs></svg>